PathFileType	4	(X/Y/Z)	C:/Users/opensim2020/Desktop/walking_exp_matlab/subject02_walking12_straight_04.trc	
DataRate	CameraRate	NumFrames	NumMarkers	Units	OrigDataRate	OrigDataStartFrame	OrigNumFrames	
100.00	100.00	7	42	mm	100.00	2102	125	
Frame#	Time	LFHD			RFHD			LBHD			RBHD			C7			T10			CLAV			STRN			RBAK			LSHO			LUPA			LELB			LFRM			LWRA			LWRB			LFIN			RSHO			RUPA			RELB			RFRM			RWRA			RWRB			RFIN			LASI			RASI			LPSI			RPSI			LTHI			LKNE			LTIB			LANK			LHEE			LTOE			RTHI			RKNE			RTIB			RANK			RHEE			RTOE			*39			*40			*41			
		X1	Y1	Z1	X2	Y2	Z2	X3	Y3	Z3	X4	Y4	Z4	X5	Y5	Z5	X6	Y6	Z6	X7	Y7	Z7	X8	Y8	Z8	X9	Y9	Z9	X10	Y10	Z10	X11	Y11	Z11	X12	Y12	Z12	X13	Y13	Z13	X14	Y14	Z14	X15	Y15	Z15	X16	Y16	Z16	X17	Y17	Z17	X18	Y18	Z18	X19	Y19	Z19	X20	Y20	Z20	X21	Y21	Z21	X22	Y22	Z22	X23	Y23	Z23	X24	Y24	Z24	X25	Y25	Z25	X26	Y26	Z26	X27	Y27	Z27	X28	Y28	Z28	X29	Y29	Z29	X30	Y30	Z30	X31	Y31	Z31	X32	Y32	Z32	X33	Y33	Z33	X34	Y34	Z34	X35	Y35	Z35	X36	Y36	Z36	X37	Y37	Z37	X38	Y38	Z38	X39	Y39	Z39	X40	Y40	Z40	X41	Y41	Z41	X42	Y42	Z42	

110	1.090	1475.74219	-742.85437	1715.96118	1341.05432	-698.06775	1688.51282	1528.33911	-612.40613	1661.14392	1397.29211	-557.63751	1634.45386	1471.49707	-521.18927	1517.27490	1479.28235	-466.53320	1237.46289	1472.03418	-657.37537	1443.13806	1471.28467	-707.85474	1271.55115	1421.97229	-454.89932	1336.23962	1641.71399	-605.60986	1500.80310	1755.10522	-638.43164	1321.32532	1796.06543	-678.84326	1190.85352	1821.85583	-742.38184	1076.66016	1795.54761	-841.05481	980.33777	1835.85840	-802.37830	970.01080	1843.18628	-847.84369	921.83502	1281.21375	-577.78241	1465.77185	1209.84473	-532.28516	1273.99707	1189.58325	-543.18018	1127.28113	1173.88794	-576.55200	1010.67548	1196.62000	-634.15356	888.30359	1165.59961	-586.79791	880.90582	1165.82690	-627.76166	819.84985	1622.59277	-692.45807	980.46625	1365.99023	-699.67633	964.41815	1531.98145	-485.85672	1022.93561	1418.06787	-482.47195	1017.79877	1673.03174	-596.12384	672.55176	1648.00781	-538.28186	474.55533	1655.13025	-453.85110	297.89420	1625.11206	-424.86487	74.62735	1576.58179	-384.57605	48.04100	1634.34851	-579.28174	29.79121	1287.73608	-697.53821	667.93945	1325.67493	-765.58392	471.09753	1338.75781	-753.45532	282.88461	1383.91711	-778.53510	93.91086	1452.49756	-776.71344	39.73217	1326.70276	-922.06366	61.97824	1412.20532	-626.99213	1789.62427	-3357.38477	2845.83472	1034.34692			 
111	1.100	1473.19714	-755.92859	1713.44275	1338.83655	-710.24036	1685.87268	1526.76563	-625.71521	1658.98950	1396.09216	-570.12610	1632.19812	1470.42603	-533.83502	1515.03467	1477.45374	-479.05719	1235.17737	1470.41821	-669.99237	1440.70093	1469.82104	-720.27856	1269.12939	1421.38965	-466.89847	1334.27563	1639.99023	-618.95056	1498.78040	1754.45007	-654.17505	1321.41089	1796.36670	-697.87054	1192.04150	1822.03345	-765.58405	1079.90771	1795.80835	-867.39514	987.43488	1836.12183	-829.23151	975.68591	1843.78809	-876.63110	929.68628	1279.79077	-589.82355	1463.38599	1209.25818	-541.73694	1271.99536	1188.80627	-551.05548	1125.45068	1172.55554	-581.82959	1008.22400	1194.25146	-637.50470	884.62433	1163.81555	-589.68195	878.33459	1163.53149	-629.20477	816.33459	1621.45276	-704.48151	978.11737	1364.31787	-712.76379	961.66229	1529.66101	-497.85925	1020.42273	1416.12451	-495.05905	1014.83398	1672.45630	-604.48364	671.58386	1647.12842	-544.23633	473.90683	1654.30835	-457.41245	298.42581	1624.56116	-425.51492	75.18745	1575.41382	-385.15118	49.10528	1634.48682	-579.48615	29.68515	1287.67651	-709.94666	664.59357	1327.19543	-778.77045	468.37860	1338.28381	-777.65564	279.84714	1380.81421	-815.09808	92.17086	1449.37842	-817.05035	37.99100	1322.33740	-960.12451	67.82722	1410.30750	-639.86157	1787.21448	-3360.27661	2845.17505	1034.24939			 
112	1.110	1470.50317	-768.84143	1710.74646	1336.51416	-722.36493	1683.18274	1524.99573	-639.01263	1656.67468	1394.78088	-582.52252	1629.84326	1469.15454	-546.44604	1512.67334	1475.49048	-491.50729	1232.78882	1468.69116	-682.65417	1438.20117	1468.16089	-732.80975	1266.61597	1420.42566	-479.22223	1331.75269	1638.05115	-632.23334	1496.53162	1753.25647	-669.69928	1320.97205	1796.24487	-716.36548	1193.06519	1822.22620	-787.85107	1083.34363	1795.76550	-892.95349	994.65802	1836.04541	-855.27386	981.42047	1844.04968	-904.56189	937.68170	1278.34119	-601.71942	1461.08179	1207.88757	-552.34491	1269.96472	1187.94348	-558.94360	1123.52063	1170.84070	-587.94458	1005.83398	1191.59888	-641.21967	881.10913	1162.04626	-593.04437	875.95367	1161.10913	-630.82654	812.99390	1620.08911	-716.79169	975.89734	1362.56995	-726.16425	958.96442	1527.25952	-510.05627	1017.74628	1414.20325	-507.75522	1011.66583	1671.52820	-612.89471	670.29620	1646.26880	-550.54962	473.28232	1653.43042	-461.08844	299.12076	1624.01538	-426.05017	76.18732	1574.86853	-385.71100	50.19659	1634.65991	-579.67859	29.51959	1287.51233	-721.68872	660.72443	1328.75745	-791.78033	465.46362	1337.58643	-801.17938	277.49353	1377.76465	-849.51337	91.43396	1445.77319	-854.56915	37.25278	1318.19446	-995.95227	73.96210	1408.27527	-652.63770	1784.74609	-3360.41479	2845.04517	1034.31189			 
113	1.120	1467.77148	-781.84857	1708.12000	1334.10718	-734.48346	1680.41602	1523.17700	-652.23358	1654.31177	1393.26257	-594.93311	1627.39038	1467.73853	-558.95892	1510.22217	1473.38684	-504.09265	1230.27319	1466.75403	-695.30908	1435.61450	1466.29590	-745.39166	1264.11145	1419.05115	-491.77441	1329.16455	1635.93567	-645.40332	1494.20264	1751.91479	-684.98767	1320.47791	1796.05115	-734.44763	1194.01086	1821.90723	-809.58948	1086.66931	1795.46899	-917.81439	1002.02625	1835.63025	-880.61768	987.26813	1844.00647	-931.59869	945.80206	1276.72949	-613.33679	1458.66528	1206.50415	-562.48621	1267.96399	1186.67175	-567.52100	1121.71606	1169.09802	-594.67566	1003.95160	1188.96582	-645.06146	877.84845	1159.98193	-596.16400	873.60101	1158.50549	-632.82721	809.79077	1618.44299	-729.53363	973.86633	1360.76111	-739.40680	956.05957	1524.79395	-522.46912	1014.91077	1412.11938	-520.74689	1008.35596	1670.86450	-621.88782	669.12830	1645.40479	-557.29669	472.77805	1652.54590	-464.82526	300.16757	1623.51855	-426.72736	77.35006	1574.22632	-386.34900	52.14178	1634.83533	-579.88287	29.48993	1286.70288	-732.77319	656.59637	1330.36035	-804.89551	462.58331	1336.73242	-824.14215	276.00455	1374.62524	-881.80865	91.78398	1442.36914	-889.38300	38.02277	1314.54028	-1029.59033	80.10230	1406.14722	-665.30688	1782.21143	-3357.31104	2845.77124	1034.28772			 
114	1.130	1464.90894	-794.74640	1705.43323	1331.53699	-746.50104	1677.68396	1521.20227	-665.40985	1651.86499	1391.67126	-607.16699	1624.88232	1466.14185	-571.42023	1507.71570	1471.21765	-516.74420	1227.62549	1464.67761	-707.95941	1433.04712	1464.19678	-757.98724	1261.59033	1417.58545	-504.21942	1326.66284	1633.66541	-658.36542	1491.89709	1750.33508	-700.06281	1319.81238	1795.35522	-751.84143	1194.63989	1821.19275	-830.64307	1089.84912	1794.97888	-941.92444	1009.44043	1834.82422	-905.19183	993.10687	1843.46375	-957.31427	953.53839	1274.71814	-625.50519	1456.24792	1204.93652	-572.48138	1265.91296	1185.49805	-575.52295	1119.73071	1167.16638	-600.30505	1001.35162	1186.22498	-649.17792	874.58435	1158.00806	-600.17218	871.19586	1155.81384	-635.45691	806.93640	1616.66174	-742.02881	971.98877	1358.85486	-752.97083	953.08990	1522.27576	-535.13361	1011.99231	1409.97253	-533.89624	1005.03864	1670.06921	-631.37756	667.95856	1644.58545	-564.61749	472.36493	1651.60522	-468.89743	301.39752	1623.21716	-427.39392	78.86471	1573.94983	-387.02579	53.92782	1634.96423	-580.02222	29.31266	1285.97498	-742.98926	652.22955	1331.61377	-818.40247	459.96899	1335.67322	-845.39996	274.75333	1371.60767	-911.44373	92.59921	1437.89038	-921.54053	38.65108	1311.41479	-1060.37830	85.57310	1403.94604	-677.99860	1779.59680	-3357.41431	2845.99609	1034.30273			 
115	1.140	1461.91833	-807.62952	1702.79712	1328.87292	-758.52484	1675.06177	1519.04126	-678.59155	1649.36890	1389.87402	-619.61017	1622.36768	1464.40723	-583.76654	1505.17419	1468.93274	-529.44012	1225.01184	1462.38538	-720.53607	1430.47437	1461.87622	-770.63531	1259.16235	1415.87817	-516.66852	1324.03235	1631.18445	-671.17163	1489.57031	1748.49634	-714.90839	1319.03003	1794.26221	-768.61530	1195.01953	1820.25928	-851.07452	1092.79419	1794.23523	-965.27423	1016.83008	1833.80945	-929.01343	998.87244	1842.68359	-982.62695	961.67621	1272.87292	-637.02618	1453.76892	1203.16309	-582.74005	1263.99524	1184.09155	-584.09082	1117.81689	1165.39111	-606.57062	999.30402	1183.40320	-653.48004	871.40070	1155.88635	-604.10876	869.11353	1153.46155	-637.27344	803.91241	1614.73779	-755.13831	970.04456	1357.08960	-766.10553	950.15625	1519.66992	-548.04425	1009.11920	1407.61816	-547.28625	1001.77081	1669.03259	-641.28424	666.81720	1643.77563	-572.47400	472.02670	1650.68750	-473.41681	302.82489	1623.27917	-428.23352	80.81697	1573.83752	-387.54907	56.84258	1635.15015	-580.17419	29.24647	1285.34717	-753.21533	648.32281	1332.57349	-832.00696	457.45941	1335.00244	-865.61688	273.94208	1369.06995	-938.10834	93.46097	1435.71545	-949.86536	40.31037	1308.76782	-1088.23560	89.86140	1401.69226	-690.57507	1777.15222	-3357.56177	2845.82495	1034.33447			 
116	1.150	1458.83521	-820.45947	1700.28064	1326.06653	-770.57343	1672.50818	1516.68335	-691.68524	1646.91284	1387.96680	-631.87378	1619.92200	1462.21826	-596.27411	1502.67065	1466.52881	-542.35529	1222.35645	1459.87317	-733.06085	1428.04858	1459.28552	-783.33423	1256.82935	1413.97229	-529.17957	1321.54700	1628.60510	-683.90344	1487.30872	1746.37744	-729.39124	1318.14453	1793.02112	-784.90308	1195.15588	1818.97693	-870.77704	1095.61377	1793.40588	-987.80823	1024.33582	1832.25159	-951.73132	1004.29791	1841.32593	-1006.94086	969.20007	1270.38513	-649.29333	1451.32617	1201.19470	-593.35553	1262.09485	1182.51074	-593.05994	1115.96252	1163.50549	-612.88019	997.01874	1179.96228	-659.34723	868.73474	1153.64819	-608.27441	866.96252	1150.52417	-640.53027	801.21051	1612.80920	-768.46442	968.15723	1354.90857	-780.31592	947.55511	1517.02551	-561.21594	1006.38007	1405.12158	-560.92651	998.71301	1667.87073	-651.63721	665.90393	1643.12927	-580.96295	471.85129	1650.06604	-478.40729	304.75598	1623.39941	-429.20782	83.14862	1574.14233	-388.36969	59.72157	1635.43127	-580.31946	29.25090	1284.88818	-763.96985	644.61957	1333.12012	-846.86359	455.47812	1334.27490	-884.22089	272.91101	1367.15601	-961.50391	93.96661	1433.70264	-974.27911	41.20592	1307.44177	-1112.71936	92.46626	1399.16980	-703.06305	1774.53406	-3357.37061	2845.85474	1034.32397			 
